<svg width="71" height="77" viewBox="0 0 71 77" fill="none" xmlns="http://www.w3.org/2000/svg">
<path d="M1.26564 51.5039H33.2581L32.8331 51.8402C32.4885 52.1011 32.2861 52.5079 32.2861 52.9398C32.2855 53.3717 32.4879 53.7791 32.8318 54.04L34.9543 55.6369L33.7302 57.9945C33.5328 58.3768 33.5271 58.8294 33.7145 59.2167C33.9025 59.604 34.2608 59.88 34.6833 59.963L37.2805 60.4685L37.1975 63.1222C37.1761 63.7955 37.6508 64.384 38.314 64.5041L35.3906 71.602C35.0825 72.3483 35.2372 73.2058 35.7854 73.7987C36.3343 74.3915 37.1774 74.6116 37.9456 74.3626L40.5446 73.5214L41.6738 75.8357C42.0215 76.5473 42.7444 76.9994 43.5366 77C43.5592 77 43.5825 77 43.6051 76.9987C44.4218 76.9717 45.1467 76.4675 45.456 75.7112L46.7518 72.5375L47.9538 75.4754C48.2581 76.2361 48.9855 76.7429 49.8047 76.763C49.8292 76.763 49.8531 76.7649 49.877 76.7649C50.6698 76.7693 51.394 76.316 51.7361 75.6005L52.8652 73.2857L55.4642 74.1275C56.2325 74.3764 57.0756 74.1564 57.6244 73.5636C58.1726 72.9707 58.3273 72.1132 58.0192 71.3663L55.1851 64.4833C55.8062 64.3286 56.2344 63.7603 56.2124 63.1203L56.1294 60.4685L58.7271 59.963C59.1503 59.88 59.5092 59.6034 59.696 59.2155C59.8833 58.8276 59.8764 58.3743 59.6784 57.992L58.4549 55.6388L60.5787 54.0438C60.9213 53.7848 61.1231 53.3805 61.1237 52.9505C61.1225 52.5161 60.9207 52.1062 60.5761 51.8402L60.1505 51.5039H69.5508C69.8859 51.5114 70.2103 51.3825 70.4485 51.1468C70.6874 50.911 70.8201 50.5885 70.8163 50.2528V1.22145C70.8188 0.888867 70.6843 0.570747 70.4454 0.340015C70.2059 0.109284 69.8827 -0.0133115 69.5508 0.00114848H1.26564C0.933691 -0.0133115 0.610541 0.109284 0.371009 0.340015C0.132104 0.570747 -0.00243663 0.888867 7.8308e-05 1.22145V50.2528C-0.00369394 50.5885 0.128961 50.911 0.367865 51.1468C0.606141 51.3825 0.930547 51.5114 1.26564 51.5039ZM43.4957 73.6981L42.6671 72.0006C42.2113 71.0758 41.1476 70.6238 40.1655 70.9375L38.1839 71.5788L41.372 63.8395L41.4732 63.8131L42.5514 66.2405C42.7055 66.5869 42.9959 66.8529 43.3537 66.9761C43.712 67.0993 44.1049 67.0679 44.4388 66.8899L45.3579 69.135L43.4957 73.6981ZM53.2418 70.7017C52.2598 70.3886 51.196 70.8407 50.7408 71.7655L49.9122 73.4636L46.5166 65.1667L46.704 65.007L48.7221 66.7246C48.9698 66.9352 49.2848 67.0509 49.6104 67.0503C49.7117 67.0503 49.8129 67.0389 49.9116 67.0169C50.3309 66.9201 50.6811 66.6322 50.8565 66.2393L51.9347 63.8131L52.1447 63.8678L55.2234 71.3436L53.2418 70.7017ZM55.6968 55.9393L56.6462 57.7556L54.6249 58.1435C53.9679 58.2693 53.5002 58.8552 53.5222 59.5242L53.5863 61.585L51.594 61.0626C50.9464 60.8903 50.2693 61.2153 49.9983 61.8289L49.1603 63.7157L47.5879 62.3778C47.0787 61.9427 46.328 61.9434 45.8194 62.3791L44.2489 63.715L43.4109 61.8289C43.194 61.3348 42.7055 61.016 42.1654 61.0154C42.0479 61.0154 41.9303 61.0311 41.8159 61.0607L39.8223 61.5831L39.8864 59.5229C39.9109 58.8521 39.4419 58.2636 38.7824 58.1372L36.7624 57.7443L37.7111 55.9192C38.0223 55.327 37.857 54.5958 37.3201 54.1953L35.6672 52.9537L37.3176 51.7176C37.8545 51.3178 38.0217 50.5872 37.7124 49.9938L36.7624 48.1668L38.7812 47.7738C39.4407 47.6487 39.9103 47.0603 39.8864 46.3894L39.8223 44.3267L41.8159 44.8491C42.4634 45.0208 43.1399 44.6951 43.4096 44.0821L44.2483 42.1948L45.8163 43.5295C46.3255 43.9677 47.0787 43.969 47.5892 43.5314L49.1597 42.1954L49.999 44.0846C50.2693 44.697 50.9452 45.0214 51.5921 44.8491L53.5857 44.3273L53.5209 46.3932C53.5002 47.0628 53.9686 47.6475 54.6255 47.7732L56.6455 48.1668L55.6968 49.9925C55.3856 50.586 55.5522 51.3172 56.0898 51.717L57.7414 52.9763L56.0885 54.24C55.551 54.5619 55.3869 55.3465 55.6968 55.9393ZM2.57521 2.57629H68.2412V48.9287H59.1314L59.6752 47.9008C59.8733 47.5205 59.8795 47.0684 59.6922 46.6824C59.5048 46.297 59.1459 46.0223 58.724 45.9431L56.1269 45.4401L56.2099 42.7876C56.2224 42.357 56.0319 41.9465 55.6949 41.678C55.358 41.4102 54.9147 41.3165 54.4985 41.4259L51.9335 42.098L50.8565 39.6731C50.6817 39.2789 50.3315 38.9903 49.9116 38.8941C49.491 38.7986 49.0503 38.9067 48.7221 39.1859L46.7033 40.9035L44.6833 39.1852C44.3552 38.9061 43.9151 38.7986 43.4951 38.8941C43.0758 38.9903 42.7256 39.2783 42.5508 39.6718L41.4726 42.098L38.9094 41.4265C38.4926 41.3165 38.0481 41.4102 37.7105 41.6786C37.3735 41.9471 37.1824 42.3595 37.1962 42.7902L37.2792 45.442L34.6839 45.9475C34.2621 46.0305 33.9031 46.3065 33.7151 46.6931C33.5284 47.0754 33.5347 47.5236 33.7321 47.9002L34.2759 48.9287H2.57521V2.57629Z" fill="#E79089"/>
<path d="M8.53023 23.8212H62.1253C62.8363 23.8212 63.4128 23.2447 63.4128 22.5337C63.4128 21.8226 62.8363 21.2461 62.1253 21.2461H8.53023C7.81917 21.2461 7.24266 21.8226 7.24266 22.5337C7.24266 23.2447 7.81917 23.8212 8.53023 23.8212Z" fill="#E79089"/>
<path d="M8.53023 17.0615H36.3739C37.0849 17.0615 37.6615 16.4849 37.6615 15.7739C37.6615 15.0628 37.0849 14.4863 36.3739 14.4863H8.53023C7.81917 14.4863 7.24266 15.0628 7.24266 15.7739C7.24266 16.4849 7.81917 17.0615 8.53023 17.0615Z" fill="#E79089"/>
<path d="M8.53023 30.7421H62.1253C62.8363 30.7421 63.4128 30.1656 63.4128 29.4546C63.4128 28.7435 62.8363 28.167 62.1253 28.167H8.53023C7.81917 28.167 7.24266 28.7435 7.24266 29.4546C7.24266 30.1656 7.81917 30.7421 8.53023 30.7421Z" fill="#E79089"/>
<path d="M63.4128 36.2138C63.4128 35.5028 62.8363 34.9263 62.1253 34.9263H8.53023C7.81917 34.9263 7.24266 35.5028 7.24266 36.2138C7.24266 36.9249 7.81917 37.5014 8.53023 37.5014H62.1253C62.8363 37.5014 63.4128 36.9249 63.4128 36.2138Z" fill="#E79089"/>
<path d="M46.704 45.6177C42.6514 45.6177 39.3665 48.9026 39.3665 52.9552C39.3665 57.0071 42.6514 60.2927 46.704 60.2927C50.7559 60.2927 54.0415 57.0078 54.0415 52.9552C54.0365 48.9045 50.7547 45.6221 46.704 45.6177ZM46.704 57.7176C44.0742 57.7176 41.9416 55.5856 41.9416 52.9552C41.9416 50.3253 44.0735 48.1928 46.704 48.1928C49.3338 48.1928 51.4664 50.3247 51.4664 52.9552C51.4632 55.5838 49.3332 57.7144 46.704 57.7176Z" fill="#E79089"/>
</svg>
