<svg width="78" height="71" viewBox="0 0 78 71" fill="none" xmlns="http://www.w3.org/2000/svg">
<path d="M69.7747 0H19.3372C14.9599 0 11.3986 3.52796 11.3986 7.85033L11.0736 52.2632H1.23047C0.532895 52.2632 0 52.8799 0 53.5775V59.6898C0 65.4116 4.57895 70.0911 10.1053 70.3477V70.4211H52.5789V70.3384C52.8947 70.3514 53.0859 70.4211 53.303 70.4211H53.3333C59.2272 70.3865 63.9782 65.5824 63.9474 59.6885V20.8421H76.7695C77.4671 20.8421 78 20.2105 78 19.5136V8.29873C78.008 3.74075 74.3326 0.0326891 69.7747 0V0ZM10.6579 67.8947H10.6493C6.15604 67.8947 2.52632 64.1811 2.52632 59.6885V54.7895H42.6316V59.6676C42.6217 62.5109 43.7449 65.2408 45.7525 67.2539C45.9659 67.4686 46.1891 67.5789 46.4173 67.8947H10.6579ZM61.421 59.6873C61.421 64.1811 57.8265 67.8947 53.3314 67.8947H53.3055C48.7882 67.8621 45.1474 64.1854 45.1579 59.6682V53.5775C45.1616 52.8701 44.6022 52.2878 43.8947 52.2632H13.5999L13.925 7.85896C13.925 4.92126 16.3526 2.52632 19.3372 2.52632H63.811C62.3715 4.10526 61.421 6.103 61.421 8.33265V59.6873ZM75.4737 8.32093V18.3158H63.9474V8.33018C63.9474 5.16859 66.5773 2.52632 69.7376 2.52632H69.7728C72.9412 2.55777 75.4885 5.14268 75.4737 8.31168V8.32093Z" fill="#E79089"/>
<path d="M29.6614 31.0911L36.1739 35.5436C36.5989 35.8366 37.1608 35.8366 37.5857 35.5436L44.0785 31.0923C46.3341 29.5535 48 26.3364 48 23.6084V14.5997C48.0136 14.1236 47.7508 13.682 47.3265 13.4655L37.4106 8.58802C37.0627 8.41532 36.6544 8.41532 36.3065 8.58802L26.4091 13.4519C25.9848 13.6684 25.7227 14.11 25.7368 14.5862V23.6084C25.7368 26.3364 27.4065 29.5535 29.6614 31.0911ZM28.2632 15.3744L36.8684 11.1285L45.4737 15.3861V23.6084C45.4737 25.5111 44.2266 27.9314 42.6532 29.0039L36.8536 32.9704L31.0769 29.0045C29.5035 27.9307 28.2632 25.5111 28.2632 23.6084V15.3744Z" fill="#E79089"/>
<path d="M34.7319 25.5162C34.9675 25.7568 35.2895 25.8931 35.6262 25.8949H35.6293C35.9649 25.8937 36.2862 25.7593 36.5224 25.5212L41.5473 20.4944C42.0413 20.001 42.0413 19.2005 41.5479 18.707C41.0551 18.213 40.2545 18.213 39.7611 18.7064L35.6336 22.8333L33.9838 21.1674C33.4922 20.6715 32.6922 20.6678 32.1964 21.1593C31.7005 21.6509 31.6974 22.4509 32.1883 22.9468L34.7319 25.5162Z" fill="#E79089"/>
<path d="M52.5789 39.1582H22.2632C21.5656 39.1582 21 39.7238 21 40.4214C21 41.1189 21.5656 41.6845 22.2632 41.6845H52.5789C53.2765 41.6845 53.8421 41.1189 53.8421 40.4214C53.8421 39.7238 53.2765 39.1582 52.5789 39.1582Z" fill="#E79089"/>
<path d="M52.5789 45H22.2632C21.5656 45 21 45.5656 21 46.2632C21 46.9607 21.5656 47.5263 22.2632 47.5263H52.5789C53.2765 47.5263 53.8421 46.9607 53.8421 46.2632C53.8421 45.5656 53.2765 45 52.5789 45Z" fill="#E79089"/>
</svg>
