<svg width="64" height="85" viewBox="0 0 64 85" fill="none" xmlns="http://www.w3.org/2000/svg">
<path d="M58.8996 13.7723H49.3923C49.1636 12.2689 48.4568 10.8784 47.3777 9.80595C46.0339 8.43935 44.2001 7.66441 42.2826 7.65246H40.133C40.0312 3.91257 36.8411 0.682673 32.9328 0.682673H31.1556C27.2586 0.667401 24.0618 3.76184 23.9568 7.65246H21.8078C18.2334 7.65246 15.2593 10.3724 14.6988 13.7723H5.1004C2.29987 13.7597 0.0179522 16.0147 0 18.8117V79.9022C0.012633 82.7105 2.2879 84.9848 5.1004 85.0001H58.8996C61.7121 84.9848 63.9874 82.7105 64 79.9022V18.8117C63.9827 16.0147 61.7001 13.7597 58.8996 13.7723ZM27.9874 4.69747C28.8278 3.85945 29.9694 3.39329 31.1569 3.40259H32.9328C35.3258 3.38997 37.3012 5.26589 37.4096 7.65246H26.6802C26.7453 6.54218 27.2094 5.49299 27.9874 4.69747ZM17.3617 14.9111C17.3617 12.4435 19.3364 10.3724 21.8078 10.3724H42.2826C44.7786 10.3989 46.7926 12.4183 46.8085 14.9111V21.8948H17.3617V14.9111ZM48.1263 24.6147C48.494 24.6154 48.8471 24.472 49.111 24.2163C49.3723 23.964 49.5239 23.6187 49.5319 23.2555V22.272H53.9574V74.9704H10.0426V22.272H14.6383V23.2548C14.6343 23.6134 14.7739 23.9593 15.0266 24.2143C15.2786 24.47 15.623 24.6141 15.982 24.6147H48.1263ZM61.2766 79.9022C61.2653 81.2091 60.2081 82.2669 58.8996 82.2802H5.1004C3.79189 82.2669 2.73471 81.2091 2.7234 79.9022V18.8117C2.73936 17.5161 3.80319 16.4782 5.1004 16.4922H14.6383V19.5521H8.74601C7.96875 19.5773 7.34441 20.2002 7.31915 20.9765V76.2487C7.34308 77.0283 7.96543 77.6571 8.74601 77.6903H55.254C56.0346 77.6571 56.6569 77.0283 56.6809 76.2487V20.9765C56.6556 20.2002 56.0312 19.5773 55.254 19.5521H49.5319V16.4922H58.8996C60.1968 16.4782 61.2606 17.5161 61.2766 18.8117V79.9022Z" fill="#E79089"/>
<path d="M19.6477 63.6668H45.3682C46.1203 63.6668 46.7302 62.9845 46.7302 62.143C46.7302 61.3014 46.1203 60.6191 45.3682 60.6191H19.6477C18.8955 60.6191 18.2857 61.3014 18.2857 62.143C18.2857 62.9845 18.8955 63.6668 19.6477 63.6668Z" fill="#E79089"/>
<path d="M19.6477 69.762H45.3682C46.1203 69.762 46.7302 69.0797 46.7302 68.2382C46.7302 67.3966 46.1203 66.7144 45.3682 66.7144H19.6477C18.8955 66.7144 18.2857 67.3966 18.2857 68.2382C18.2857 69.0797 18.8955 69.762 19.6477 69.762Z" fill="#E79089"/>
<path d="M25.0501 55.6122C25.4597 56.2697 26.2275 56.6216 27.0007 56.5072C27.7746 56.3927 28.4034 55.8338 28.5991 55.0866L29.0984 53.1789C29.5754 51.3597 30.518 49.6922 31.837 48.3355L31.86 48.3574C33.3038 49.7208 34.3483 51.4429 34.8826 53.3426L35.39 55.1471C35.5972 55.8844 36.2287 56.43 36.9965 56.5365C37.0869 56.5491 37.1787 56.5558 37.2704 56.5558C37.9472 56.5558 38.576 56.2091 38.9302 55.6402C43.8158 47.8065 45.2489 40.3041 45.6692 36.5287C45.9162 34.2863 45.1396 32.0512 43.55 30.4297C41.9603 28.8074 39.7223 27.9657 37.4411 28.132C36.1855 28.2245 31.5024 29.379 29.9687 29.7636C29.5632 29.556 29.1712 29.3244 28.7941 29.0696C28.1403 28.6437 27.4642 28.2026 26.6094 28.136C24.3201 27.9584 22.0692 28.7948 20.4688 30.4183C18.8684 32.0419 18.0844 34.2843 18.33 36.536C18.749 40.3041 20.1807 47.7938 25.0501 55.6122ZM22.441 32.3267C23.4679 31.2767 24.9172 30.7357 26.3914 30.8528C26.5358 30.8635 26.9602 31.1403 27.2706 31.3426C28.6537 32.2442 30.9693 33.7526 35.9973 33.1332C36.4864 33.0726 36.9068 32.7592 37.0991 32.3107C37.2907 31.8629 37.2259 31.3472 36.9284 30.9593C37.2489 30.8994 37.4985 30.8602 37.6469 30.8495C39.1083 30.7431 40.5428 31.2827 41.5623 32.322C42.5811 33.3614 43.079 34.794 42.9218 36.2312C42.2329 41.9796 40.4038 47.5383 37.539 52.5907C36.8697 50.2279 35.5675 48.0853 33.7701 46.3885L33.5683 46.1989C32.565 45.2547 30.9761 45.288 30.0139 46.2727L29.8473 46.4431C28.1976 48.1385 27.0182 50.2232 26.4218 52.4975L26.4164 52.5181C23.5765 47.4871 21.7623 41.9563 21.0761 36.2379C20.9155 34.7993 21.4161 33.3641 22.4403 32.3274L22.441 32.3267Z" fill="#E79089"/>
</svg>
