<svg width="80" height="74" viewBox="0 0 80 74" fill="none" xmlns="http://www.w3.org/2000/svg">
<path d="M63.4063 31.8785L59.8061 39.362C59.2466 40.5223 58.4298 41.543 57.4178 42.3484L56.6696 42.9425C52.8644 45.9483 50.7438 50.5772 50.9671 55.3924L49.4961 54.6988C48.8295 54.3846 48.0316 54.6651 47.7136 55.3251L43.7668 63.5307C43.4488 64.1907 43.7322 64.9806 44.3988 65.2954L62.5869 73.8714C62.9068 74.0226 63.275 74.0414 63.6093 73.9244C63.9436 73.8067 64.2165 73.5624 64.3693 73.245L68.3162 65.0394C68.6341 64.3794 68.3508 63.5895 67.6841 63.2747L67.1997 63.0465L66.7093 60.2812C66.6486 59.2986 66.9685 58.3297 67.6038 57.5721L77.022 46.2876C77.0416 46.265 77.0599 46.2411 77.0769 46.2172C79.0186 43.5339 80.0424 40.3057 79.9986 37.0045C79.9973 36.9418 79.9921 36.8791 79.9817 36.8177L76.1347 12.7796C76.0244 12.0873 75.3885 11.6005 74.684 11.669C71.4821 11.9748 69.0879 14.7169 69.2446 17.8972L69.4849 27.6503C66.851 27.9095 64.5456 29.5132 63.4063 31.8785ZM62.5301 70.9121L46.7565 63.4745L49.5535 57.6587L65.3271 65.0963L62.5301 70.9121ZM71.0473 30.3264L65.7848 41.2657C65.5765 41.6929 65.6151 42.1984 65.886 42.5895C66.157 42.9812 66.6192 43.1991 67.0972 43.1609C67.5751 43.1228 67.9956 42.8339 68.1993 42.404L74.1166 30.1034C74.4339 29.4434 74.1505 28.6529 73.4839 28.3387C73.0602 28.1396 72.6188 27.9799 72.165 27.861L71.9169 17.8164C71.9169 17.8048 71.9169 17.7938 71.9156 17.7821C71.8471 16.479 72.5561 15.2573 73.7268 14.6587L77.3263 37.137C77.3426 39.8235 76.5049 42.4467 74.9327 44.6361L65.5433 55.8856C64.4542 57.1862 63.9175 58.8552 64.0481 60.5404C64.0514 60.5837 64.0566 60.627 64.0651 60.6703L64.2387 61.6503L53.7889 56.7233C53.0544 52.2902 54.7957 47.8099 58.343 45.0084L59.0906 44.4143C60.4173 43.3587 61.4874 42.0207 62.2213 40.5003L65.8207 33.0174C66.7616 31.0666 68.894 29.969 71.0473 30.3264Z" fill="#E79089"/>
<path d="M2.97787 46.2881L12.3965 57.5725C13.0311 58.3301 13.351 59.2991 13.2903 60.2816L12.8006 63.0469L12.3168 63.2751C11.6496 63.5899 11.3669 64.3798 11.6842 65.0398L15.6315 73.2454C15.7837 73.5628 16.0572 73.8065 16.3915 73.9241C16.7258 74.0417 17.0934 74.0224 17.4133 73.8711L35.6008 65.2952C36.2681 64.981 36.5508 64.1911 36.2335 63.5305L32.2861 55.3249C31.9688 54.6649 31.171 54.3844 30.5044 54.6992L29.0334 55.3921C29.2561 50.5777 27.1361 45.9487 23.3311 42.9423L22.5822 42.3482C21.5702 41.5428 20.7541 40.5221 20.1939 39.3618L16.5939 31.8783C15.4546 29.5131 13.1492 27.9093 10.5155 27.6501L10.7564 17.8971C10.9131 14.7167 8.5183 11.9747 5.31718 11.6689C4.61271 11.601 3.97679 12.0878 3.86646 12.7794L0.0183208 36.8175C0.0078746 36.8796 0.00265148 36.9423 0.0013457 37.005C-0.0423979 40.3056 0.981334 43.5337 2.92303 46.2176C2.94066 46.2416 2.95894 46.2648 2.97787 46.2881ZM33.2446 63.4742L17.4714 70.9118L14.6737 65.0961L30.4469 57.6585L33.2446 63.4742ZM6.27366 14.6579C7.44495 15.2565 8.15333 16.4789 8.08478 17.782C8.08478 17.793 8.08478 17.8046 8.08347 17.8163L7.83603 27.8609C7.38227 27.9792 6.94026 28.1388 6.51654 28.3386C5.84994 28.6527 5.56723 29.4426 5.88454 30.1026L11.801 42.4032C12.0047 42.833 12.4252 43.122 12.9031 43.1601C13.381 43.1982 13.8433 42.9804 14.1142 42.5887C14.3852 42.1976 14.4237 41.6921 14.2154 41.2648L8.95378 30.3263C11.107 29.9694 13.2387 31.0671 14.1802 33.0173L17.7802 40.5001C18.514 42.0205 19.5835 43.3586 20.9102 44.4141L21.6584 45.0082C25.2049 47.8097 26.9461 52.29 26.2116 56.7231L15.7634 61.65L15.9371 60.6701C15.9443 60.6268 15.9501 60.5835 15.9534 60.5402C16.084 58.855 15.548 57.1859 14.4583 55.8854L5.06843 44.6359C3.49561 42.4465 2.65861 39.8233 2.67428 37.1369L6.27366 14.6579Z" fill="#E79089"/>
<path d="M38.9516 41.59C38.9746 41.599 38.9982 41.6074 39.0225 41.6158C39.652 41.8512 40.3471 41.8512 40.9772 41.6158C41.0041 41.6068 41.0304 41.5971 41.0566 41.5867C58.9111 34.4625 64.9597 21.4152 63.0345 11.6456L63.0319 11.6359C61.6266 4.77542 56.5763 0.342496 50.1667 0.342496C46.9208 0.342496 43.4269 1.53396 40.011 3.79859C36.5518 1.43182 33.113 0.233887 29.7779 0.233887C23.3295 0.233887 18.2996 4.7153 16.9652 11.6482C15.0407 21.5232 21.0932 34.6112 38.9516 41.59ZM19.6052 12.1453C20.7053 6.43171 24.6036 2.88252 29.7773 2.88252C32.775 2.88252 35.9447 4.09403 39.1958 6.48343C39.6671 6.82994 40.313 6.83447 40.7895 6.49377C43.9946 4.20264 47.2372 2.99113 50.1667 2.99113C55.3167 2.99113 59.236 6.50217 60.3958 12.1557C62.77 24.2184 51.9179 34.3824 40.0931 39.1152C40.0563 39.1269 40.0241 39.1346 39.9999 39.1398C39.9743 39.1346 39.9408 39.1262 39.9021 39.1146C23.5055 32.6892 17.8914 20.9433 19.6052 12.1453Z" fill="#E79089"/>
<path d="M38.6307 35.3945C38.6541 35.4035 38.6776 35.412 38.7011 35.4197C39.2039 35.6051 39.7568 35.6051 40.2596 35.4197C40.2864 35.4113 40.3131 35.4016 40.3392 35.3906C52.1319 30.642 56.1169 21.8934 54.8355 15.3305L54.8335 15.3207C53.8789 10.6175 50.4331 7.57814 46.0555 7.57814C43.9479 7.57814 41.6943 8.32226 39.4921 9.73919C37.2625 8.25744 35.0382 7.50684 32.8693 7.50684C28.4643 7.50684 25.0316 10.5799 24.1252 15.3331C22.8445 21.966 26.8334 30.7418 38.6307 35.3945ZM26.7486 15.8302C27.4164 12.3339 29.7614 10.1618 32.8693 10.1618C34.6795 10.1618 36.6893 10.9429 38.6815 12.4201C39.1504 12.7675 39.7921 12.7714 40.2648 12.4305C42.2577 10.9928 44.2603 10.2325 46.0555 10.2325C49.1511 10.2325 51.5104 12.3812 52.214 15.8412C53.6898 23.4166 46.9046 29.8356 39.479 32.8724C29.2064 28.768 25.6798 21.3677 26.7486 15.8309V15.8302Z" fill="#E79089"/>
</svg>
